<svg width="22" height="23" viewBox="0 0 22 23" fill="none" xmlns="http://www.w3.org/2000/svg">
<path d="M15.4882 1.61725C16.2036 0.901885 17.1738 0.5 18.1855 0.5C18.6864 0.5 19.1824 0.598666 19.6452 0.790363C20.108 0.98206 20.5285 1.26304 20.8828 1.61725C21.237 1.97146 21.5179 2.39196 21.7096 2.85476C21.9013 3.31756 22 3.81359 22 4.31451C22 4.81544 21.9013 5.31147 21.7096 5.77427C21.5179 6.23706 21.237 6.65757 20.8828 7.01178L13.6269 14.2676C12.6922 15.2028 11.4795 15.8096 10.1707 15.997L7.5064 16.3758C7.31868 16.4027 7.12727 16.3856 6.94732 16.3257C6.76737 16.2659 6.60382 16.165 6.4696 16.031C6.33539 15.897 6.23419 15.7337 6.17402 15.5538C6.11385 15.374 6.09636 15.1826 6.12294 14.9948L6.50302 12.3305C6.69013 11.0213 7.29695 9.80808 8.23235 8.87311L15.4882 1.61725ZM19.1546 3.34536C19.0275 3.21787 18.8764 3.11672 18.7101 3.04771C18.5438 2.97869 18.3655 2.94317 18.1855 2.94317C18.0054 2.94317 17.8271 2.97869 17.6608 3.04771C17.4945 3.11672 17.3435 3.21787 17.2163 3.34536L9.96046 10.6012C9.39931 11.1621 9.03523 11.8898 8.92286 12.6752L8.77254 13.7262L9.82358 13.5771C10.6094 13.465 11.3376 13.1009 11.8988 12.5395L19.1546 5.28367C19.2821 5.15652 19.3833 5.00547 19.4523 4.83916C19.5213 4.67286 19.5568 4.49457 19.5568 4.31451C19.5568 4.13446 19.5213 3.95617 19.4523 3.78987C19.3833 3.62356 19.2821 3.47251 19.1546 3.34536ZM9.77714 1.72357C9.77714 2.0477 9.64838 2.35856 9.41918 2.58776C9.18999 2.81695 8.87913 2.94571 8.555 2.94571C7.3353 2.94571 6.47491 2.95549 5.80151 3.01904C5.14156 3.08259 4.74802 3.19137 4.44616 3.34536C3.7563 3.69686 3.19543 4.25773 2.84393 4.94759C2.68016 5.26901 2.56772 5.69431 2.50662 6.43371C2.44551 7.18777 2.44429 8.15693 2.44429 9.54529V13.4561C2.44429 14.8457 2.44429 15.8137 2.50662 16.5677C2.56772 17.3071 2.68016 17.7324 2.84393 18.0538C3.19543 18.7437 3.7563 19.3046 4.44616 19.6561C4.76758 19.8198 5.19289 19.9323 5.93228 19.9934C6.68634 20.0545 7.6555 20.0557 9.04386 20.0557H12.9547C14.3443 20.0557 15.3122 20.0557 16.0663 19.9934C16.8057 19.9323 17.231 19.8198 17.5524 19.6561C18.2423 19.3046 18.8031 18.7437 19.1546 18.0538C19.3086 17.752 19.4174 17.3584 19.4797 16.6997C19.5445 16.0251 19.5531 15.1647 19.5531 13.9438C19.5532 13.7833 19.585 13.6244 19.6466 13.4762C19.7081 13.328 19.7983 13.1933 19.9119 13.08C20.0255 12.9666 20.1603 12.8767 20.3086 12.8154C20.457 12.7541 20.6159 12.7227 20.7764 12.7229C20.9369 12.723 21.0958 12.7548 21.244 12.8164C21.3922 12.8779 21.5269 12.9681 21.6403 13.0817C21.7536 13.1953 21.8435 13.3301 21.9048 13.4784C21.9661 13.6268 21.9975 13.7857 21.9974 13.9462C21.9974 15.1415 21.99 16.1216 21.913 16.9307C21.8348 17.7532 21.6784 18.4828 21.3325 19.1636C20.7467 20.3133 19.8119 21.2481 18.6621 21.8339C17.9386 22.203 17.1564 22.357 16.2655 22.4291C15.399 22.5 14.3321 22.5 13.0073 22.5H8.99131C7.6665 22.5 6.59835 22.5 5.73307 22.4291C4.84335 22.3558 4.05996 22.203 3.33767 21.8339C2.18746 21.2483 1.25223 20.3135 0.666068 19.1636C0.296981 18.44 0.142991 17.6566 0.0708844 16.7669C1.09275e-07 15.9004 0 14.8335 0 13.5087V9.49273C0 8.16793 1.09275e-07 7.09978 0.0708844 6.2345C0.144213 5.34356 0.296981 4.56139 0.666068 3.83788C1.25191 2.68813 2.1867 1.75334 3.33645 1.1675C4.01596 0.820409 4.7468 0.665196 5.5693 0.586979C6.37959 0.509984 7.35852 0.501429 8.555 0.501429C8.87913 0.501429 9.18999 0.63019 9.41918 0.859387C9.64838 1.08858 9.77714 1.39944 9.77714 1.72357Z" fill="white"/>
</svg>
