<svg width="47" height="41" viewBox="0 0 47 41" fill="none" xmlns="http://www.w3.org/2000/svg">
<path d="M16.5769 24.0455L23.5 31.1364M23.5 31.1364L30.4231 24.0455M23.5 31.1364V16.9545M25.9462 7.05091L21.0538 2.04C20.7324 1.7104 20.3508 1.4489 19.9307 1.27045C19.5105 1.092 19.0602 1.0001 18.6054 1H6.19231C4.81522 1 3.49454 1.56031 2.52079 2.55766C1.54705 3.55501 1 4.90771 1 6.31818V34.6818C1 36.0923 1.54705 37.445 2.52079 38.4423C3.49454 39.4397 4.81522 40 6.19231 40H40.8077C42.1848 40 43.5055 39.4397 44.4792 38.4423C45.453 37.445 46 36.0923 46 34.6818V13.4091C46 11.9986 45.453 10.6459 44.4792 9.64857C43.5055 8.65122 42.1848 8.09091 40.8077 8.09091H28.3946C27.4769 8.09008 26.5947 7.716 25.9462 7.05091Z" stroke="black" stroke-width="1.5" stroke-linecap="round" stroke-linejoin="round"/>
</svg>
