<svg width="35" height="25" viewBox="0 0 35 25" fill="none" xmlns="http://www.w3.org/2000/svg">
<path d="M0.287838 23C0.287838 23.6295 0.798187 24.1399 1.42773 24.1399C2.05728 24.1399 2.56763 23.6295 2.56763 23H0.287838ZM1.96292 1.36648L2.60697 0.42597L2.60697 0.42597L1.96292 1.36648ZM16.1552 23.9666C16.6891 24.3003 17.3923 24.138 17.726 23.6041C18.0596 23.0703 17.8973 22.367 17.3635 22.0334L16.1552 23.9666ZM7.65503 17.3098L8.25918 16.3432L8.25918 16.3432L7.65503 17.3098ZM7.65885 16.7275L8.25027 17.7019L8.25027 17.7019L7.65885 16.7275ZM33.0534 1.31523L32.462 0.340756L32.462 0.340757L33.0534 1.31523ZM33.0375 22.6331L32.393 23.5733L32.393 23.5733L33.0375 22.6331ZM2.56763 23V1.64864H0.287838V23H2.56763ZM1.31887 2.307L11.2707 9.12186L12.5588 7.24083L2.60697 0.42597L1.31887 2.307ZM17.3635 22.0334L8.25918 16.3432L7.05089 18.2764L16.1552 23.9666L17.3635 22.0334ZM8.25027 17.7019L33.6448 2.2897L32.462 0.340757L7.06744 15.753L8.25027 17.7019ZM32.4329 1.60757V22.351H34.7127V1.60757H32.4329ZM33.682 21.6929L22.0774 13.7385L20.7884 15.619L32.393 23.5733L33.682 21.6929ZM33.6448 2.2897C33.1131 2.61242 32.4329 2.2296 32.4329 1.60757H34.7127C34.7127 0.452363 33.4496 -0.258598 32.462 0.340756L33.6448 2.2897ZM8.25918 16.3432C8.76309 16.6581 8.75826 17.3936 8.25027 17.7019L7.06744 15.753C6.12402 16.3256 6.11506 17.6915 7.05089 18.2764L8.25918 16.3432ZM32.4329 22.351C32.4329 21.709 33.1525 21.3299 33.682 21.6928L32.393 23.5733C33.3764 24.2474 34.7127 23.5432 34.7127 22.351H32.4329ZM2.56763 1.64864C2.56763 2.29044 1.84841 2.66962 1.31887 2.307L2.60697 0.42597C1.62353 -0.247472 0.287838 0.456715 0.287838 1.64864H2.56763Z" fill="#B6F38C"/>
<path d="M19.4951 14.6797L20.806 15.5916L22.3449 13.9957L21.5469 13.4258L19.4951 14.6797Z" fill="#B6F38C" stroke="#B6F38C" stroke-width="0.11399"/>
</svg>
